<?xml version="1.0" encoding="UTF-8" standalone="no"?>
<!-- Created with Inkscape (http://www.inkscape.org/) -->

<svg
   xmlns:dc="http://purl.org/dc/elements/1.1/"
   xmlns:cc="http://creativecommons.org/ns#"
   xmlns:rdf="http://www.w3.org/1999/02/22-rdf-syntax-ns#"
   xmlns:svg="http://www.w3.org/2000/svg"
   xmlns="http://www.w3.org/2000/svg"
   xmlns:xlink="http://www.w3.org/1999/xlink"
   xmlns:sodipodi="http://sodipodi.sourceforge.net/DTD/sodipodi-0.dtd"
   xmlns:inkscape="http://www.inkscape.org/namespaces/inkscape"
   width="944"
   height="118"
   viewBox="0 0 249.76666 31.220833"
   version="1.1"
   id="svg8"
   inkscape:version="0.92.1 r15371"
   sodipodi:docname="VectorIcons.svg">
  <defs
     id="defs2" />
  <sodipodi:namedview
     id="base"
     pagecolor="#ffffff"
     bordercolor="#666666"
     borderopacity="1.0"
     inkscape:pageopacity="0.0"
     inkscape:pageshadow="2"
     inkscape:zoom="2.8"
     inkscape:cx="177.80841"
     inkscape:cy="66.136724"
     inkscape:document-units="px"
     inkscape:current-layer="layer3"
     showgrid="true"
     units="px"
     inkscape:window-width="2160"
     inkscape:window-height="1330"
     inkscape:window-x="-12"
     inkscape:window-y="-12"
     inkscape:window-maximized="1"
     inkscape:pagecheckerboard="true"
     inkscape:snap-global="true"
     gridtolerance="10"
     inkscape:snap-bbox="true"
     inkscape:bbox-nodes="true"
     inkscape:bbox-paths="true"
     inkscape:snap-bbox-edge-midpoints="true"
     inkscape:snap-bbox-midpoints="true"
     inkscape:snap-center="true">
    <inkscape:grid
       type="xygrid"
       id="grid4485"
       spacingx="31.220833"
       spacingy="31.220833"
       empspacing="2" />
  </sodipodi:namedview>
  <metadata
     id="metadata5">
    <rdf:RDF>
      <cc:Work
         rdf:about="">
        <dc:format>image/svg+xml</dc:format>
        <dc:type
           rdf:resource="http://purl.org/dc/dcmitype/StillImage" />
        <dc:title />
      </cc:Work>
    </rdf:RDF>
  </metadata>
  <g
     inkscape:groupmode="layer"
     id="layer3"
     inkscape:label="Cogs">
    <circle
       style="fill:#00aefa;fill-opacity:1;stroke:#00aefa;stroke-width:4.23333325;stroke-miterlimit:4;stroke-dasharray:none;stroke-dashoffset:0;stroke-opacity:1"
       id="path4609"
       cx="21.605293"
       cy="4.058166"
       r="8.7123508"
       transform="rotate(34.118159)" />
    <path
       style="fill:#00aefa;fill-opacity:1;stroke:none;stroke-width:0.99999994;stroke-opacity:1"
       d="M 0,-134.91992 A 16.920056,16.920056 0 0 0 -16.919922,-118 16.920056,16.920056 0 0 0 0,-101.08008 16.920056,16.920056 0 0 0 16.919922,-118 16.920056,16.920056 0 0 0 0,-134.91992 Z m 0,8.39258 A 8.5271984,8.5271984 0 0 1 8.5273438,-118 8.5271984,8.5271984 0 0 1 0,-109.47266 8.5271984,8.5271984 0 0 1 -8.5273438,-118 8.5271984,8.5271984 0 0 1 0,-126.52734 Z"
       transform="scale(0.26458333)"
       id="circle4611"
       inkscape:connector-curvature="0" />
    <path
       style="fill:#00aefa;fill-opacity:1;stroke:none;stroke-width:0.99999994;stroke-opacity:1"
       d="m 7.0898438,-125.59961 v 2.87305 a 8.5271984,8.5271984 0 0 1 1.4375,4.72656 8.5271984,8.5271984 0 0 1 -1.4375,4.72852 v 2.87109 H 24.451172 v -15.19922 z"
       transform="scale(0.26458333)"
       id="rect4613"
       inkscape:connector-curvature="0" />
    <path
       style="fill:#00aefa;fill-opacity:1;stroke:none;stroke-width:0.99999994;stroke-opacity:1"
       d="m -7.5996094,-110.91016 v 17.361332 H 7.5996094 V -110.91016 H 4.7265625 A 8.5271984,8.5271984 0 0 1 0,-109.47266 a 8.5271984,8.5271984 0 0 1 -4.7285156,-1.4375 z"
       transform="scale(0.26458333)"
       id="rect4627"
       inkscape:connector-curvature="0" />
    <path
       style="fill:#00aefa;fill-opacity:1;stroke:none;stroke-width:0.99999994;stroke-opacity:1"
       d="m -24.451172,-125.59961 v 15.19922 h 17.3613282 v -2.87305 a 8.5271984,8.5271984 0 0 1 -1.4375,-4.72656 8.5271984,8.5271984 0 0 1 1.4375,-4.72852 v -2.87109 z"
       transform="scale(0.26458333)"
       id="rect4631"
       inkscape:connector-curvature="0" />
    <path
       style="fill:#00aefa;fill-opacity:1;stroke:none;stroke-width:0.99999994;stroke-opacity:1"
       d="m -7.5996094,-142.45117 v 17.36133 h 2.8730469 A 8.5271984,8.5271984 0 0 1 0,-126.52734 a 8.5271984,8.5271984 0 0 1 4.7285156,1.4375 h 2.8710938 v -17.36133 z"
       transform="scale(0.26458333)"
       id="rect4635"
       inkscape:connector-curvature="0" />
    <path
       style="fill:#00aefa;fill-opacity:1;stroke:#ffffff;stroke-width:1.32291663;stroke-miterlimit:4;stroke-dasharray:none;stroke-opacity:1;paint-order:stroke markers fill"
       d="m 19.037506,-19.488191 -1.333119,1.33312 a 3.4097325,3.4097324 0 0 0 -2.138836,-0.0025 l -1.330615,-1.330615 -2.165832,2.165833 1.33312,1.33312 a 3.4097325,3.4097324 0 0 0 -0.0025,2.138834 l -1.330614,1.330615 2.165832,2.165832 1.33312,-1.33312 a 3.4097325,3.4097324 0 0 0 2.138557,0.0022 l 1.330892,1.330893 2.165832,-2.165833 -1.333119,-1.333119 a 3.4097325,3.4097324 0 0 0 0.0025,-2.138836 l 1.330615,-1.330614 z m -1.186171,3.352003 a 1.7184024,1.7184023 0 0 1 0.115221,0.127467 1.7184024,1.7184023 0 0 1 0.353737,0.751167 1.7184024,1.7184023 0 0 1 -2.78e-4,0.67324 1.7184024,1.7184023 0 0 1 -0.100472,0.32813 1.7184024,1.7184023 0 0 1 -8.38e-4,0.0014 1.7184024,1.7184023 0 0 1 -0.05928,0.124961 1.7184024,1.7184023 0 0 1 -0.01753,0.03479 1.7184024,1.7184023 0 0 1 -0.06151,0.101028 1.7184024,1.7184023 0 0 1 -0.03061,0.04843 1.7184024,1.7184023 0 0 1 -0.05761,0.07653 1.7184024,1.7184023 0 0 1 -0.04926,0.06318 1.7184024,1.7184023 0 0 1 -0.09154,0.09994 1.7184024,1.7184023 0 0 1 -0.127468,0.11522 1.7184024,1.7184023 0 0 1 -0.751168,0.353737 1.7184024,1.7184023 0 0 1 -0.673239,-2.8e-4 1.7184024,1.7184023 0 0 1 -0.166709,-0.04203 1.7184024,1.7184023 0 0 1 -8.38e-4,-2.59e-4 1.7184024,1.7184023 0 0 1 -0.136373,-0.04898 1.7184024,1.7184023 0 0 1 -0.03006,-0.01169 1.7184024,1.7184023 0 0 1 -0.116889,-0.05566 1.7184024,1.7184023 0 0 1 -0.0384,-0.01948 1.7184024,1.7184023 0 0 1 -0.101027,-0.0615 1.7184024,1.7184023 0 0 1 -0.04843,-0.03061 1.7184024,1.7184023 0 0 1 -0.07654,-0.05761 1.7184024,1.7184023 0 0 1 -0.06318,-0.04926 1.7184024,1.7184023 0 0 1 -0.09989,-0.09159 1.7184024,1.7184023 0 0 1 -0.115221,-0.127468 1.7184024,1.7184023 0 0 1 -0.353735,-0.751169 1.7184024,1.7184023 0 0 1 2.78e-4,-0.673238 1.7184024,1.7184023 0 0 1 0.09212,-0.306422 1.7184024,1.7184023 0 0 1 0.01058,-0.02727 1.7184024,1.7184023 0 0 1 0.05594,-0.117168 1.7184024,1.7184023 0 0 1 0.01948,-0.0384 1.7184024,1.7184023 0 0 1 0.06791,-0.11188 1.7184024,1.7184023 0 0 1 0.02171,-0.03395 1.7184024,1.7184023 0 0 1 0.06624,-0.0885 1.7184024,1.7184023 0 0 1 0.04286,-0.05455 1.7184024,1.7184023 0 0 1 0.09182,-0.100219 1.7184024,1.7184023 0 0 1 0.878633,-0.468958 l 5.38e-4,-5.38e-4 a 1.7184024,1.7184023 0 0 1 0.672683,8.38e-4 1.7184024,1.7184023 0 0 1 0.160587,0.04035 1.7184024,1.7184023 0 0 1 0.007,0.0019 1.7184024,1.7184023 0 0 1 0.131085,0.04703 1.7184024,1.7184023 0 0 1 0.03674,0.01391 1.7184024,1.7184023 0 0 1 0.113832,0.05482 1.7184024,1.7184023 0 0 1 0.04007,0.02004 1.7184024,1.7184023 0 0 1 0.101028,0.0615 1.7184024,1.7184023 0 0 1 0.04843,0.03061 1.7184024,1.7184023 0 0 1 0.07654,0.05761 1.7184024,1.7184023 0 0 1 0.06318,0.04926 1.7184024,1.7184023 0 0 1 0.09989,0.09159 z"
       id="path4655"
       inkscape:connector-curvature="0" />
    <path
       style="fill:#00aefa;fill-opacity:1;stroke:#ffffff;stroke-width:0;stroke-miterlimit:4;stroke-dasharray:none;stroke-opacity:1;paint-order:stroke markers fill"
       d="m -50.490975,-11.950692 -7.402648,7.4026488 4.556311,4.55682716 a 11.654467,11.654469 0 0 0 -0.0083,7.31066494 l -4.548042,4.5480421 7.402648,7.40265 4.556828,-4.556829 a 11.654467,11.654469 0 0 0 7.309632,0.0078 l 4.548559,4.549077 7.403166,-7.40265 -4.556828,-4.5568263 A 11.654467,11.654469 0 0 0 -31.220833,-2.0378151e-7 L -26.67279,-4.5480432 l -7.403166,-7.4026488 -4.556311,4.5568276 a 11.654467,11.654469 0 0 0 -7.310665,-0.00878 z"
       id="path4666"
       inkscape:connector-curvature="0" />
  </g>
  <g
     inkscape:groupmode="layer"
     id="layer2"
     inkscape:label="Icons">
    <image
       sodipodi:absref="C:\Users\ulysses\Documents\_Games\BattleTanks\Assets\Textures\CustomTransformIcons\Position.png"
       xlink:href="Position.png"
       y="-7.4707039e-008"
       x="1.2907448e-007"
       id="image4540"
       style="image-rendering:optimizeQuality"
       preserveAspectRatio="none"
       height="31.220833"
       width="31.220833" />
    <image
       sodipodi:absref="C:\Users\ulysses\Documents\_Games\BattleTanks\Assets\Textures\CustomTransformIcons\PositionD.png"
       xlink:href="PositionD.png"
       y="-7.4707039e-008"
       x="31.220833"
       id="image4551"
       style="image-rendering:optimizeQuality"
       preserveAspectRatio="none"
       height="31.220833"
       width="31.220833" />
    <image
       sodipodi:absref="C:\Users\ulysses\Documents\_Games\BattleTanks\Assets\Textures\CustomTransformIcons\Rotation.png"
       xlink:href="Rotation.png"
       y="-2.0378151e-007"
       x="62.441666"
       id="image4562"
       style="image-rendering:optimizeQuality"
       preserveAspectRatio="none"
       height="31.220833"
       width="31.220833" />
    <image
       sodipodi:absref="C:\Users\ulysses\Documents\_Games\BattleTanks\Assets\Textures\CustomTransformIcons\RotationD.png"
       xlink:href="RotationD.png"
       y="-7.4707032e-008"
       x="93.662498"
       id="image4573"
       style="image-rendering:optimizeQuality"
       preserveAspectRatio="none"
       height="31.220833"
       width="31.220833" />
    <path
       style="fill:#565656;fill-opacity:1;stroke:none;stroke-width:0.99999994;stroke-opacity:1"
       d="M 528.74219 14.935547 A 39.917061 39.917061 0 0 0 488.82617 54.853516 A 39.917061 39.917061 0 0 0 528.74219 94.769531 A 39.917061 39.917061 0 0 0 568.66016 54.853516 A 39.917061 39.917061 0 0 0 528.74219 14.935547 z M 528.74219 24.28125 A 30.57315 30.57315 0 0 1 559.31445 54.853516 L 528.74219 54.853516 L 528.74219 85.425781 A 30.57315 30.57315 0 0 1 498.16992 54.853516 L 528.74219 54.853516 L 528.74219 24.28125 z "
       id="path4580"
       transform="scale(0.26458333)" />
    <circle
       r="10.561389"
       cy="-39.309746"
       cx="91.704643"
       id="circle4601"
       style="fill:#565656;fill-opacity:1;stroke:none;stroke-width:0.26458332;stroke-opacity:1" />
    <path
       inkscape:connector-curvature="0"
       id="path4603"
       d="m 91.704647,-47.398659 v 8.088914 h 8.08891 a 8.0891458,8.0891458 0 0 0 -8.08891,-8.088914 z m 0,8.088914 h -8.08892 a 8.0891458,8.0891458 0 0 0 8.08892,8.088912 z"
       style="fill:#ffffff;fill-opacity:1;stroke:none;stroke-width:0.26458332;stroke-opacity:1" />
    <path
       id="path4607"
       d="M 171.38174,3.9516968 A 10.561389,10.561389 0 0 0 160.82063,14.513326 10.561389,10.561389 0 0 0 171.38174,25.074438 10.561389,10.561389 0 0 0 181.94337,14.513326 10.561389,10.561389 0 0 0 171.38174,3.9516968 Z m 0,2.4727172 a 8.0891458,8.0891458 0 0 1 8.08891,8.088912 h -8.08891 v 8.088912 a 8.0891458,8.0891458 0 0 1 -8.08891,-8.088912 h 8.08891 z"
       style="fill:#c4c4c4;fill-opacity:1;stroke:none;stroke-width:0.26458332;stroke-opacity:1"
       inkscape:connector-curvature="0" />
  </g>
  <g
     inkscape:label="Pins"
     inkscape:groupmode="layer"
     id="layer1"
     transform="translate(0,-265.77914)"
     sodipodi:insensitive="true"
     style="display:none">
    <image
       sodipodi:absref="C:\Users\ulysses\Documents\_Games\BattleTanks\Assets\Textures\CustomTransformIcons\Pin.png"
       xlink:href="Pin.png"
       y="265.51456"
       x="1.2907448e-007"
       id="image4506"
       style="image-rendering:optimizeQuality"
       preserveAspectRatio="none"
       height="31.485416"
       width="31.220833" />
    <image
       sodipodi:absref="C:\Users\ulysses\Documents\_Games\BattleTanks\Assets\Textures\CustomTransformIcons\Pin.png"
       xlink:href="Pin.png"
       width="31.220833"
       height="31.485416"
       preserveAspectRatio="none"
       style="image-rendering:optimizeQuality"
       id="image4509"
       x="31.220833"
       y="265.51456" />
    <image
       sodipodi:absref="C:\Users\ulysses\Documents\_Games\BattleTanks\Assets\Textures\CustomTransformIcons\Pin.png"
       xlink:href="Pin.png"
       width="31.220833"
       height="31.485416"
       preserveAspectRatio="none"
       style="image-rendering:optimizeQuality"
       id="image4511"
       x="62.441666"
       y="265.51456" />
    <image
       sodipodi:absref="C:\Users\ulysses\Documents\_Games\BattleTanks\Assets\Textures\CustomTransformIcons\Pin.png"
       xlink:href="Pin.png"
       y="265.51456"
       x="93.662498"
       id="image4513"
       style="image-rendering:optimizeQuality"
       preserveAspectRatio="none"
       height="31.485416"
       width="31.220833" />
    <image
       sodipodi:absref="C:\Users\ulysses\Documents\_Games\BattleTanks\Assets\Textures\CustomTransformIcons\Pin.png"
       xlink:href="Pin.png"
       width="31.220833"
       height="31.485416"
       preserveAspectRatio="none"
       style="image-rendering:optimizeQuality"
       id="image4523"
       x="124.88333"
       y="265.51456" />
    <image
       sodipodi:absref="C:\Users\ulysses\Documents\_Games\BattleTanks\Assets\Textures\CustomTransformIcons\Pin.png"
       xlink:href="Pin.png"
       y="265.51456"
       x="156.10417"
       id="image4525"
       style="image-rendering:optimizeQuality"
       preserveAspectRatio="none"
       height="31.485416"
       width="31.220833" />
    <image
       sodipodi:absref="C:\Users\ulysses\Documents\_Games\BattleTanks\Assets\Textures\CustomTransformIcons\Pin.png"
       xlink:href="Pin.png"
       y="265.51456"
       x="187.325"
       id="image4527"
       style="image-rendering:optimizeQuality"
       preserveAspectRatio="none"
       height="31.485416"
       width="31.220833" />
    <image
       sodipodi:absref="C:\Users\ulysses\Documents\_Games\BattleTanks\Assets\Textures\CustomTransformIcons\Pin.png"
       xlink:href="Pin.png"
       width="31.220833"
       height="31.485416"
       preserveAspectRatio="none"
       style="image-rendering:optimizeQuality"
       id="image4529"
       x="218.54584"
       y="265.51456" />
  </g>
</svg>
