<?xml version="1.0" encoding="UTF-8" standalone="no"?>
<svg
   xmlns:dc="http://purl.org/dc/elements/1.1/"
   xmlns:cc="http://creativecommons.org/ns#"
   xmlns:rdf="http://www.w3.org/1999/02/22-rdf-syntax-ns#"
   xmlns:svg="http://www.w3.org/2000/svg"
   xmlns="http://www.w3.org/2000/svg"
   xmlns:sodipodi="http://sodipodi.sourceforge.net/DTD/sodipodi-0.dtd"
   xmlns:inkscape="http://www.inkscape.org/namespaces/inkscape"
   width="128"
   height="128"
   viewBox="0 0 33.866666 33.866668"
   version="1.1"
   id="svg8"
   inkscape:version="1.0.1 (3bc2e813f5, 2020-09-07)"
   sodipodi:docname="NotThis.svg"
   inkscape:export-filename="C:\Users\ulysses\Documents\_Games\BattleTanks\Assets\Scripts\MonoBehaviours\Tiling\Textures\RuleBehaviours\NotThis.png"
   inkscape:export-xdpi="96"
   inkscape:export-ydpi="96">
  <defs
     id="defs2" />
  <sodipodi:namedview
     id="base"
     pagecolor="#ffffff"
     bordercolor="#666666"
     borderopacity="1.0"
     inkscape:pageopacity="0.0"
     inkscape:pageshadow="2"
     inkscape:zoom="5.6"
     inkscape:cx="38.242966"
     inkscape:cy="66.179441"
     inkscape:document-units="mm"
     inkscape:current-layer="layer1"
     inkscape:document-rotation="0"
     showgrid="true"
     units="px"
     inkscape:pagecheckerboard="true"
     gridtolerance="10"
     inkscape:snap-bbox="true"
     inkscape:snap-bbox-midpoints="true"
     inkscape:snap-midpoints="true"
     inkscape:window-width="2160"
     inkscape:window-height="1330"
     inkscape:window-x="-12"
     inkscape:window-y="-12"
     inkscape:window-maximized="1">
    <inkscape:grid
       type="xygrid"
       id="grid833"
       spacingx="8.4666667"
       spacingy="8.4666667" />
  </sodipodi:namedview>
  <metadata
     id="metadata5">
    <rdf:RDF>
      <cc:Work
         rdf:about="">
        <dc:format>image/svg+xml</dc:format>
        <dc:type
           rdf:resource="http://purl.org/dc/dcmitype/StillImage" />
        <dc:title></dc:title>
      </cc:Work>
    </rdf:RDF>
  </metadata>
  <g
     inkscape:label="Layer 1"
     inkscape:groupmode="layer"
     id="layer1">
    <path
       id="rect837"
       style="fill:#000000;stroke-width:1.002;paint-order:stroke markers fill;fill-opacity:1"
       d="M 30.058594 7.4316406 L 7.4316406 30.058594 L 41.373047 64 L 7.4316406 97.941406 L 30.058594 120.56836 L 64 86.626953 L 97.941406 120.56836 L 120.56836 97.941406 L 86.626953 64 L 120.56836 30.058594 L 97.941406 7.4316406 L 64 41.373047 L 30.058594 7.4316406 z "
       transform="scale(0.26458333)" />
    <path
       id="path837"
       style="fill:#ff0000;stroke-width:0.265112;paint-order:stroke markers fill"
       d="m 4.9589844,7.953125 c 2.9942665,2.993364 5.9866106,5.988651 8.9824216,8.980469 -2.995821,2.991807 -5.9881487,5.987111 -8.9824216,8.980468 0.9980469,0.998047 1.9960937,1.996094 2.9941406,2.994141 2.993364,-2.994266 5.988651,-5.98661 8.980469,-8.982422 2.991807,2.995822 5.987111,5.988149 8.980468,8.982422 0.998047,-0.998047 1.996094,-1.996094 2.994141,-2.994141 -2.994266,-2.993363 -5.98661,-5.988651 -8.982422,-8.980468 2.995822,-2.991808 5.988149,-5.987112 8.982422,-8.980469 C 27.910156,6.9550781 26.912109,5.9570313 25.914062,4.9589844 22.920699,7.9532509 19.925411,10.945595 16.933594,13.941406 13.941786,10.945585 10.946482,7.9532573 7.953125,4.9589844 6.9550781,5.9570312 5.9570313,6.9550781 4.9589844,7.953125 Z" />
  </g>
</svg>
